# xmcd
#
# Track frame offsets: 
#        150
#        19692
#        37183
#        55401
#        71377
#        102243
#        124847
#        137453
#        149741
#        167291
#
# Disc length: 2361 seconds
#
# Revision: 0
# Processed by: cddbd v1.5.2PL0 Copyright (c) Steve Scherf et al.
# Submitted via: ExactAudioCopyFreeDBPlugin 1.0
#
DISCID=8b09370a
DTITLE=Jim Pipkin - Rollin The Dice
DYEAR=2013
DGENRE=Country
TTITLE0=Feels Like Home
TTITLE1=Silver in the Leaves
TTITLE2=Tinted Windows
TTITLE3=Rollin the Dice
TTITLE4=Brushy Bill
TTITLE5=No More
TTITLE6=Tornado Sky
TTITLE7=Forever with You
TTITLE8=Cool of the Evening
TTITLE9=I'll Never Play in Kerrville
EXTD=
EXTT0=
EXTT1=
EXTT2=
EXTT3=
EXTT4=
EXTT5=
EXTT6=
EXTT7=
EXTT8=
EXTT9=
PLAYORDER=
